<svg xmlns="http://www.w3.org/2000/svg" viewBox="0 0 24 24" width="24" height="24">
  <path fill="#FF9900" d="M6.763 10.036c0 .296.032.535.088.71.064.176.144.368.256.576.04.063.056.127.056.183 0 .08-.048.16-.152.24l-.503.335a.383.383 0 01-.208.072c-.08 0-.16-.04-.239-.112a2.47 2.47 0 01-.287-.375 6.18 6.18 0 01-.248-.471c-.622.734-1.405 1.101-2.347 1.101-.67 0-1.205-.191-1.596-.574-.391-.384-.59-.894-.59-1.533 0-.678.239-1.23.726-1.644.487-.415 1.133-.623 1.955-.623.272 0 .551.024.846.064.296.04.6.104.918.176v-.583c0-.607-.127-1.03-.375-1.277-.255-.248-.686-.367-1.3-.367-.28 0-.568.031-.863.103-.295.072-.583.16-.862.272a2.287 2.287 0 01-.28.104.488.488 0 01-.127.023c-.112 0-.168-.08-.168-.247v-.391c0-.128.016-.224.056-.28a.597.597 0 01.224-.167c.279-.144.614-.264 1.005-.36a4.84 4.84 0 011.246-.151c.95 0 1.644.216 2.091.647.439.43.662 1.085.662 1.963v2.586zm-3.24 1.214c.263 0 .534-.048.822-.144.287-.096.543-.271.758-.51.128-.152.224-.32.272-.512.047-.191.08-.423.08-.694v-.335a6.66 6.66 0 00-.735-.136 6.02 6.02 0 00-.75-.048c-.535 0-.926.104-1.19.32-.263.215-.39.518-.39.917 0 .375.095.655.295.846.191.2.47.296.838.296zm6.41.862c-.144 0-.24-.024-.304-.08-.064-.048-.12-.16-.168-.311L7.586 5.55a1.398 1.398 0 01-.072-.32c0-.128.064-.2.191-.2h.783c.151 0 .255.025.31.08.065.048.113.16.16.312l1.342 5.284 1.245-5.284c.04-.16.088-.264.151-.312a.549.549 0 01.32-.08h.638c.152 0 .256.025.32.08.063.048.12.16.151.312l1.261 5.348 1.381-5.348c.048-.16.104-.264.16-.312a.52.52 0 01.311-.08h.743c.127 0 .2.065.2.2 0 .04-.009.08-.017.128a1.137 1.137 0 01-.056.2l-1.923 6.17c-.048.16-.104.263-.168.311a.51.51 0 01-.303.08h-.687c-.151 0-.255-.024-.32-.08-.063-.056-.119-.16-.15-.32l-1.238-5.148-1.23 5.14c-.04.16-.087.264-.15.32-.065.056-.177.08-.32.08zm10.256.215c-.415 0-.83-.048-1.229-.143-.399-.096-.71-.2-.918-.32-.128-.071-.215-.151-.247-.223a.563.563 0 01-.048-.224v-.407c0-.167.064-.247.183-.247.048 0 .096.008.144.024.048.016.12.048.2.08.271.12.566.215.878.279.319.064.63.096.95.096.502 0 .894-.088 1.165-.264a.86.86 0 00.415-.758.777.777 0 00-.215-.559c-.144-.151-.4-.287-.774-.415l-1.11-.343c-.55-.167-.967-.359-1.245-.607-.287-.248-.415-.543-.415-.886 0-.264.063-.512.183-.734.128-.23.288-.431.495-.603.2-.173.447-.287.742-.375.295-.088.614-.136.958-.136.127 0 .263.008.406.024.143.016.286.04.43.072.143.032.279.064.415.104.127.04.231.08.31.128a.748.748 0 01.24.2.45.45 0 01.071.263v.375c0 .168-.064.256-.184.256a.83.83 0 01-.303-.096 3.652 3.652 0 00-1.532-.311c-.455 0-.815.071-1.062.223-.248.152-.375.383-.375.71 0 .224.08.416.24.567.159.152.454.304.877.44l1.086.336c.542.167.93.383 1.17.647.247.264.367.584.367.958 0 .272-.064.535-.184.782-.128.247-.303.468-.535.654-.231.187-.51.335-.835.443-.326.112-.694.167-1.101.167zM22.6 10.012c0 .838-.135 1.515-.399 2.033-.263.518-.631.908-1.1 1.173-.263.152-.551.272-.862.36-.319.087-.694.135-1.149.135-.447 0-.83-.048-1.149-.135a3.108 3.108 0 01-.863-.36 2.153 2.153 0 01-1.092-1.173c-.264-.518-.399-1.195-.399-2.033 0-.847.135-1.523.407-2.033.271-.518.639-.903 1.108-1.165.263-.151.551-.27.862-.354.311-.086.686-.144 1.125-.144.447 0 .83.054 1.141.144.311.084.599.207.862.359.47.257.838.642 1.101 1.16.264.518.399 1.194.399 2.033zm-1.453 0c0-.632-.07-1.109-.216-1.434-.143-.324-.351-.556-.63-.699-.16-.08-.34-.14-.542-.176a3.863 3.863 0 00-.67-.055c-.23 0-.447.015-.67.055-.223.039-.406.096-.566.176-.279.143-.487.375-.63.699-.143.325-.215.802-.215 1.434 0 .63.072 1.11.215 1.434.143.325.351.565.63.703.16.08.343.135.566.175.223.04.439.056.67.056.23 0 .446-.016.67-.056.224-.04.399-.096.542-.175.279-.138.487-.378.63-.703.147-.325.216-.804.216-1.434z"/>
</svg>
