<svg xmlns="http://www.w3.org/2000/svg" viewBox="0 0 24 24" width="24" height="24">
  <path fill="#00599C" d="M10.5 15.97L10.91 14.8 12.64 15.2 13 17.97z"></path>
  <path fill="#004482" d="M17.5 8.5L19.48 9.93 19.48 14.07 17.5 15.5 15.52 14.07 15.52 9.93z"></path>
  <path fill="#659AD2" d="M12 22.25L0 13.92V10.08L12 1.75 24 10.08V13.92L12 22.25zM2.77 12.5l9.23 5.32 9.23-5.32-9.23-5.32L2.77 12.5z"></path>
  <path fill="#00599C" d="M13 7L13 9 15 9 15 11 13 11 13 13 11 13 11 11 9 11 9 9 11 9 11 7z"></path>
</svg>
