<svg xmlns="http://www.w3.org/2000/svg" width="500" height="500" viewBox="0 0 500 500">
  <style>
    .code-line {
      stroke: #64ffda;
      stroke-width: 2;
      stroke-linecap: round;
      fill: none;
    }
    .dev-shape {
      fill: #112240;
      stroke: #64ffda;
      stroke-width: 2;
    }
    
    @keyframes typing {
      0%, 100% { stroke-dashoffset: 100; }
      50% { stroke-dashoffset: 0; }
    }
    
    @keyframes float {
      0%, 100% { transform: translateY(0); }
      50% { transform: translateY(-10px); }
    }
    
    @keyframes pulse {
      0%, 100% { opacity: 0.3; }
      50% { opacity: 0.8; }
    }
    
    .code-line {
      stroke-dasharray: 100;
      animation: typing 3s infinite;
    }
    
    .floating {
      animation: float 4s ease-in-out infinite;
    }
    
    .glowing {
      animation: pulse 2s infinite;
    }
  </style>
  
  <!-- Background shapes -->
  <rect x="0" y="0" width="500" height="500" fill="none" />
  
  <!-- Developer figure -->
  <g class="floating" transform="translate(250, 250)">
    <!-- Laptop -->
    <rect x="-80" y="10" width="160" height="100" rx="5" class="dev-shape" />
    <rect x="-70" y="20" width="140" height="80" fill="#0a192f" stroke="#233554" stroke-width="1" />
    
    <!-- Screen content - code lines -->
    <path d="M-60,35 L-20,35" class="code-line" style="animation-delay: 0s;" />
    <path d="M-60,50 L0,50" class="code-line" style="animation-delay: 0.2s;" />
    <path d="M-60,65 L40,65" class="code-line" style="animation-delay: 0.4s;" />
    <path d="M-60,80 L20,80" class="code-line" style="animation-delay: 0.6s;" />
    
    <!-- Person -->
    <circle cx="0" cy="-30" r="30" fill="#0a192f" stroke="#64ffda" stroke-width="2" />
    <circle cx="-10" cy="-35" r="3" fill="#64ffda" />
    <circle cx="10" cy="-35" r="3" fill="#64ffda" />
    <path d="M-10,-20 Q0,-15 10,-20" stroke="#64ffda" stroke-width="2" fill="none" />
    
    <!-- Hair -->
    <path d="M-25,-50 Q-30,-70 -10,-60 Q0,-80 10,-60 Q30,-70 25,-50" fill="#0a192f" stroke="#64ffda" stroke-width="2" />
    
    <!-- Arms -->
    <path d="M-30,-10 Q-50,30 -60,50" stroke="#64ffda" stroke-width="3" fill="none" />
    <path d="M30,-10 Q50,30 60,50" stroke="#64ffda" stroke-width="3" fill="none" />
    
    <!-- Decorative tech symbols floating around -->
    <g class="glowing">
      <text x="-100" y="-80" fill="#64ffda" font-family="monospace" font-size="15">&lt;/&gt;</text>
      <text x="70" y="-60" fill="#64ffda" font-family="monospace" font-size="15">{}</text>
      <text x="80" y="20" fill="#64ffda" font-family="monospace" font-size="15">( )</text>
      <text x="-120" y="40" fill="#64ffda" font-family="monospace" font-size="15">$_</text>
      <text x="40" y="80" fill="#64ffda" font-family="monospace" font-size="15">#</text>
    </g>
  </g>
</svg>
