<svg xmlns="http://www.w3.org/2000/svg" viewBox="0 0 24 24" width="24" height="24">
  <path fill="#5382A1" d="M8.851 18.56s-.917.534.653.714c1.902.218 2.874.187 4.969-.211 0 0 .552.346 1.321.646-4.699 2.013-10.633-.118-6.943-1.149M8.276 15.933s-1.028.761.542.924c2.032.209 3.636.227 6.413-.308 0 0 .384.389.987.602-5.679 1.661-12.007.13-7.942-1.218M13.116 11.475c1.158 1.333-.304 2.533-.304 2.533s2.939-1.518 1.589-3.418c-1.261-1.772-2.228-2.652 3.007-5.688 0-.001-8.216 2.051-4.292 6.573M19.33 20.504s.679.559-.747.991c-2.712.822-11.288 1.069-13.669.033-.856-.373.75-.89 1.254-.998.527-.114.828-.93.828-.093-9.51-1.676-6.157 1.651-3.54 2.363 7.08 1.928 12.903-0.869 11.376-2.296M9.292 13.21s-3.428.813-1.215 1.11c.935.125 2.804.097 4.54-.049 1.422-.119 2.846-.372 2.846-.372s-.5.215-8.627.323c-2.275.16-1.64-.644-.043-1.012M16.717 17.479c2.604-1.354 1.4-2.653 1.4-2.653 0 .36-2.71.68-.714-1.01-1.051-1.688-2.329-2.655 1.64-3.146 0 0 1.398-3.114-3.237 5.407 0 .001-.188.648.911 1.402M14.684 0s1.442 1.443-1.369 3.663c-2.251 1.775-5.14 3.241-1.902 5.05 2.313 1.294-1.827 3.907-1.827 3.907s4.711-2.445 2.551-5.505c-1.772-2.512 1.213-3.811 2.547-5.115M10.125 30.341c2.334.337 5.932-.185 6.021-2.643.008-.227-.023-.346-.023-.346s-.34 1.216-1.923 2.084c-1.989 1.091-4.444.964-5.903.265 0-.001.298.238 1.092.396"/>
</svg>
