<svg xmlns="http://www.w3.org/2000/svg" viewBox="0 0 24 24" width="24" height="24">
  <path fill="#00758F" d="M16.405 5.501c-.115 0-.193.014-.274.033v.013h.014c.054.104.146.18.214.273.054.107.1.214.154.32l.014-.015c.094-.066.14-.172.14-.333-.04-.047-.046-.094-.08-.14-.04-.067-.126-.1-.18-.153zM5.77 18.695h-.927a50.854 50.854 0 00-.27-4.41h-.008l-1.41 4.41H2.45l-1.4-4.41h-.01a72.892 72.892 0 00-.195 4.41H0c.055-1.966.192-3.81.41-5.53h1.15l1.335 4.064h.008l1.347-4.064h1.095c.242 2.015.384 3.86.428 5.53zm4.017-4.08c-.378 2.045-.876 3.533-1.492 4.46-.482.716-1.01 1.073-1.583 1.073-.153 0-.34-.046-.566-.138v-.494c.11.017.24.026.386.026.268 0 .483-.075.647-.222.197-.18.295-.382.295-.605 0-.155-.077-.47-.23-.944L6.23 14.615h.91l.727 2.36c.164.536.233.91.205 1.123.4-1.064.678-2.227.835-3.483zm12.325 4.08h-2.63v-5.53h.885v4.85h1.745zm-3.32.135l-1.016-.5c.09-.076.177-.158.255-.25.433-.506.648-1.258.648-2.253 0-1.83-.718-2.746-2.155-2.746-.704 0-1.254.232-1.65.697-.43.508-.646 1.256-.646 2.245 0 .972.19 1.686.574 2.14.337.405.82.607 1.45.607.16 0 .313-.013.465-.04.55.316 1.084.599 1.59.85zm-3.608-.687c-.593 0-.89-.349-.89-1.046 0-.473.123-.87.368-1.197.2-.264.42-.396.682-.396.61 0 .915.373.915 1.12 0 .89-.348 1.52-1.075 1.52z"/>
  <path fill="#F8981D" d="M20.486 19.858c0-.893-.211-1.72-.633-2.482-1.058.438 1.687 5.362-1.562 3.907-.188.352-.429.703-.722 1.05 2.508 0 2.917-1.274 2.917-2.475z"/>
  <path fill="#F8981D" d="M18.675 16.058c-.02-1.045-.269-1.892-.747-2.545-.602-.806-1.536-1.21-2.803-1.21-1.22 0-2.182.498-2.888 1.495-.656.936-.984 2.17-.984 3.7 0 1.716.553 2.942 1.657 3.67.596.391 1.338.587 2.224.587.835 0 1.576-.174 2.226-.523.215-.116.4-.241.553-.376l.453.713c.553.806 1.099 1.368 1.632 1.69.346.207.7.354 1.066.442-.607-.838-1.108-1.731-1.505-2.676-.176-.422-.356-.896-.54-1.422-.04-.13-.097-.32-.17-.567-.063.014-.113.023-.153.023-.583 0-1.086-.253-1.503-.757-.394-.476-.59-1.182-.59-2.118 0-1.084.317-1.956.95-2.616.407-.422.89-.633 1.45-.633.254 0 .482.04.685.12.28.1.5.252.67.455.1.12.187.282.26.486.08.226.137.484.173.774z"/>
</svg>
