<svg xmlns="http://www.w3.org/2000/svg" viewBox="0 0 24 24" width="24" height="24">
  <path fill="#539E43" d="M12 1.85c-.27 0-.55.07-.78.2l-7.44 4.3c-.48.28-.78.8-.78 1.36v8.58c0 .56.3 1.08.78 1.36l1.95 1.12c.95.46 1.27.47 1.71.47 1.4 0 2.2-.85 2.2-2.33V8.17c0-.12-.1-.22-.22-.22H8.5c-.13 0-.23.1-.23.22v8.35c0 .66-.68 1.31-1.77.76L4.45 16.2c-.07-.04-.12-.12-.12-.21V7.98c0-.09.05-.17.12-.21l7.44-4.29c.07-.04.15-.04.22 0l7.44 4.29c.07.04.12.12.12.21v8.01c0 .09-.05.17-.12.21l-7.44 4.29c-.07.04-.15.04-.23 0L10 19.02c-.08-.03-.16-.04-.21-.01-.53.3-.63.36-1.12.51-.12.04-.31.11.07.32l2.48 1.47c.24.14.5.21.78.21s.54-.07.78-.21l7.44-4.29c.48-.28.78-.8.78-1.36V7.42c0-.56-.3-1.08-.78-1.36l-7.44-4.3c-.23-.13-.5-.2-.78-.2M14 8c-2.12 0-3.39.89-3.39 2.39 0 1.61 1.26 2.08 3.3 2.28 2.43.24 2.62.6 2.62 1.08 0 .83-.67 1.18-2.23 1.18-1.98 0-2.4-.49-2.55-1.47-.01-.07-.06-.13-.14-.13h-.99c-.08 0-.14.06-.14.14 0 .85.46 1.85 3.82 1.85 2.28 0 3.6-.9 3.6-2.48 0-1.56-1.06-1.97-3.27-2.27-2.25-.31-2.65-.45-2.65-1.1 0-.5.22-1.15 2.02-1.15 1.62 0 2.22.35 2.47 1.43.02.07.06.12.14.12h.99c.04 0 .08-.02.1-.05.03-.04.04-.08.03-.13C17.21 8.75 16.12 8 14 8"></path>
</svg>
