<svg xmlns="http://www.w3.org/2000/svg" width="400" height="300" viewBox="0 0 400 300">
  <defs>
    <linearGradient id="grad1" x1="0%" y1="0%" x2="100%" y2="100%">
      <stop offset="0%" style="stop-color:#0a192f;stop-opacity:1" />
      <stop offset="100%" style="stop-color:#112240;stop-opacity:1" />
    </linearGradient>
    <filter id="shadow" x="-20%" y="-20%" width="140%" height="140%">
      <feDropShadow dx="2" dy="2" stdDeviation="3" flood-color="#000" flood-opacity="0.3"/>
    </filter>
  </defs>
  
  <!-- Background -->
  <rect width="400" height="300" fill="url(#grad1)" />
  
  <!-- Photography Elements -->
  <g transform="translate(200, 150)" filter="url(#shadow)">
    <!-- Camera Lens -->
    <circle cx="0" cy="0" r="55" fill="#172a46" stroke="#64ffda" stroke-width="2" />
    <circle cx="0" cy="0" r="45" fill="#0a192f" stroke="#64ffda" stroke-width="1" />
    <circle cx="0" cy="0" r="35" fill="#172a46" stroke="#64ffda" stroke-width="1" />
    <circle cx="0" cy="0" r="15" fill="#64ffda" opacity="0.8" />
    
    <!-- Camera Body -->
    <rect x="-70" y="-30" width="45" height="60" rx="5" fill="#172a46" stroke="#64ffda" stroke-width="2" />
    <rect x="-65" y="-20" width="35" height="10" rx="2" fill="#0a192f" />
    <circle cx="-47" cy="-5" r="5" fill="#64ffda" opacity="0.8" />
    
    <!-- People Icons (Meetup Concept) -->
    <g transform="translate(-80, -80)">
      <circle cx="0" cy="0" r="12" fill="#64ffda" opacity="0.7" />
      <circle cx="0" cy="-5" r="5" fill="#172a46" />
      <rect x="-5" y="0" width="10" height="10" rx="3" fill="#172a46" />
    </g>
    
    <g transform="translate(70, -60)">
      <circle cx="0" cy="0" r="12" fill="#64ffda" opacity="0.6" />
      <circle cx="0" cy="-5" r="5" fill="#172a46" />
      <rect x="-5" y="0" width="10" height="10" rx="3" fill="#172a46" />
    </g>
    
    <g transform="translate(85, 70)">
      <circle cx="0" cy="0" r="12" fill="#64ffda" opacity="0.8" />
      <circle cx="0" cy="-5" r="5" fill="#172a46" />
      <rect x="-5" y="0" width="10" height="10" rx="3" fill="#172a46" />
    </g>
    
    <!-- Connection Lines (Network Effect) -->
    <line x1="-70" y1="-70" x2="65" y2="-55" stroke="#64ffda" stroke-width="1" opacity="0.5" />
    <line x1="-70" y1="-70" x2="75" y2="65" stroke="#64ffda" stroke-width="1" opacity="0.5" />
    <line x1="65" y1="-55" x2="75" y2="65" stroke="#64ffda" stroke-width="1" opacity="0.5" />
    
    <!-- Map Pin (Location Concept) -->
    <g transform="translate(-50, 70)">
      <path d="M0,0 C-10,0 -20,10 -20,20 C-20,35 0,50 0,50 C0,50 20,35 20,20 C20,10 10,0 0,0" fill="#64ffda" opacity="0.7" />
      <circle cx="0" cy="20" r="7" fill="#172a46" />
    </g>
    
    <!-- Photo Frames -->
    <g transform="translate(40, 20) rotate(15)">
      <rect x="-20" y="-15" width="40" height="30" fill="#172a46" stroke="#64ffda" stroke-width="1" />
      <rect x="-15" y="-10" width="30" height="20" fill="#0a192f" />
    </g>
  </g>
  
  <!-- Global Connection Concept -->
  <g transform="translate(360, 40)">
    <circle cx="0" cy="0" r="20" fill="none" stroke="#64ffda" stroke-width="1" opacity="0.6" />
    <path d="M0,-15 C10,-15 15,-10 15,0 C15,10 10,15 0,15 C-10,15 -15,10 -15,0 C-15,-10 -10,-15 0,-15" fill="none" stroke="#64ffda" stroke-width="1" opacity="0.6" />
    <line x1="-15" y1="0" x2="15" y2="0" stroke="#64ffda" stroke-width="1" opacity="0.6" />
    <line x1="0" y1="-15" x2="0" y2="15" stroke="#64ffda" stroke-width="1" opacity="0.6" />
  </g>
</svg>
