<svg xmlns="http://www.w3.org/2000/svg" width="400" height="300" viewBox="0 0 400 300">
  <defs>
    <linearGradient id="grad1" x1="0%" y1="0%" x2="100%" y2="100%">
      <stop offset="0%" style="stop-color:#0a192f;stop-opacity:1" />
      <stop offset="100%" style="stop-color:#112240;stop-opacity:1" />
    </linearGradient>
    <filter id="shadow" x="-20%" y="-20%" width="140%" height="140%">
      <feDropShadow dx="2" dy="2" stdDeviation="3" flood-color="#000" flood-opacity="0.3"/>
    </filter>
  </defs>
  
  <!-- Background -->
  <rect width="400" height="300" fill="url(#grad1)" />
  
  <!-- Dashboard Frame -->
  <rect x="50" y="40" width="300" height="220" rx="10" fill="#172a46" stroke="#64ffda" stroke-width="2" filter="url(#shadow)" />
  
  <!-- Header Bar -->
  <rect x="50" y="40" width="300" height="30" rx="10" fill="#0a192f" stroke="#64ffda" stroke-width="1" />
  <circle cx="70" cy="55" r="5" fill="#ff6464" />
  <circle cx="90" cy="55" r="5" fill="#ffbf00" />
  <circle cx="110" cy="55" r="5" fill="#64ffda" />
  
  <!-- Dashboard Content -->
  <g transform="translate(200, 150)">
    <!-- Charts and Data Visualization Elements -->
    
    <!-- Bar Chart -->
    <g transform="translate(-100, 0)">
      <rect x="-40" y="-40" width="80" height="80" rx="5" fill="#0a192f" stroke="#64ffda" stroke-width="1" />
      <line x1="-30" y1="30" x2="30" y2="30" stroke="#64ffda" stroke-width="1" opacity="0.7" />
      <line x1="-30" y1="-30" x2="-30" y2="30" stroke="#64ffda" stroke-width="1" opacity="0.7" />
      
      <rect x="-25" y="10" width="10" height="20" fill="#64ffda" opacity="0.7" />
      <rect x="-10" y="0" width="10" height="30" fill="#64ffda" opacity="0.8" />
      <rect x="5" y="15" width="10" height="15" fill="#64ffda" opacity="0.6" />
      <rect x="20" y="-10" width="10" height="40" fill="#64ffda" opacity="0.9" />
    </g>
    
    <!-- Line Chart -->
    <g transform="translate(0, -40)">
      <rect x="-40" y="-40" width="80" height="80" rx="5" fill="#0a192f" stroke="#64ffda" stroke-width="1" />
      <polyline points="-30,10 -15,-20 0,0 15,-10 30,5" fill="none" stroke="#64ffda" stroke-width="2" opacity="0.8" />
      <circle cx="-30" cy="10" r="3" fill="#64ffda" />
      <circle cx="-15" cy="-20" r="3" fill="#64ffda" />
      <circle cx="0" cy="0" r="3" fill="#64ffda" />
      <circle cx="15" cy="-10" r="3" fill="#64ffda" />
      <circle cx="30" cy="5" r="3" fill="#64ffda" />
    </g>
    
    <!-- Pie Chart -->
    <g transform="translate(0, 40)">
      <rect x="-40" y="-40" width="80" height="80" rx="5" fill="#0a192f" stroke="#64ffda" stroke-width="1" />
      <path d="M0,0 L0,-25 A25,25 0 0,1 21.65,12.5 z" fill="#64ffda" opacity="0.9" />
      <path d="M0,0 L21.65,12.5 A25,25 0 0,1 -21.65,12.5 z" fill="#64ffda" opacity="0.7" />
      <path d="M0,0 L-21.65,12.5 A25,25 0 0,1 0,-25 z" fill="#64ffda" opacity="0.5" />
    </g>
    
    <!-- Data Table -->
    <g transform="translate(100, 0)">
      <rect x="-40" y="-40" width="80" height="80" rx="5" fill="#0a192f" stroke="#64ffda" stroke-width="1" />
      <line x1="-30" y1="-20" x2="30" y2="-20" stroke="#64ffda" stroke-width="1" opacity="0.7" />
      <line x1="-30" y1="0" x2="30" y2="0" stroke="#64ffda" stroke-width="1" opacity="0.5" />
      <line x1="-30" y1="20" x2="30" y2="20" stroke="#64ffda" stroke-width="1" opacity="0.5" />
      
      <text x="-25" y="-25" fill="#64ffda" font-family="Arial" font-size="8">Sleep</text>
      <text x="5" y="-25" fill="#64ffda" font-family="Arial" font-size="8">Health</text>
      
      <rect x="-35" y="-15" width="20" height="10" rx="2" fill="#64ffda" opacity="0.2" />
      <rect x="-35" y="5" width="20" height="10" rx="2" fill="#64ffda" opacity="0.2" />
      <rect x="-35" y="25" width="20" height="10" rx="2" fill="#64ffda" opacity="0.2" />
      
      <rect x="0" y="-15" width="20" height="10" rx="2" fill="#64ffda" opacity="0.2" />
      <rect x="0" y="5" width="20" height="10" rx="2" fill="#64ffda" opacity="0.2" />
      <rect x="0" y="25" width="20" height="10" rx="2" fill="#64ffda" opacity="0.2" />
    </g>
  </g>
  
  <!-- Data Points and Connection Lines -->
  <g transform="translate(200, 150)" opacity="0.2">
    <circle cx="-120" cy="-60" r="2" fill="#64ffda" />
    <circle cx="-100" cy="-80" r="2" fill="#64ffda" />
    <circle cx="-70" cy="-90" r="2" fill="#64ffda" />
    <circle cx="-30" cy="-70" r="2" fill="#64ffda" />
    <circle cx="20" cy="-85" r="2" fill="#64ffda" />
    <circle cx="60" cy="-75" r="2" fill="#64ffda" />
    <circle cx="100" cy="-65" r="2" fill="#64ffda" />
    <circle cx="120" cy="-50" r="2" fill="#64ffda" />
    
    <line x1="-120" y1="-60" x2="-100" y2="-80" stroke="#64ffda" stroke-width="1" />
    <line x1="-100" y1="-80" x2="-70" y2="-90" stroke="#64ffda" stroke-width="1" />
    <line x1="-70" y1="-90" x2="-30" y2="-70" stroke="#64ffda" stroke-width="1" />
    <line x1="-30" y1="-70" x2="20" y2="-85" stroke="#64ffda" stroke-width="1" />
    <line x1="20" y1="-85" x2="60" y2="-75" stroke="#64ffda" stroke-width="1" />
    <line x1="60" y1="-75" x2="100" y2="-65" stroke="#64ffda" stroke-width="1" />
    <line x1="100" y1="-65" x2="120" y2="-50" stroke="#64ffda" stroke-width="1" />
  </g>
</svg>
