<svg xmlns="http://www.w3.org/2000/svg" width="400" height="300" viewBox="0 0 400 300">
  <defs>
    <linearGradient id="grad1" x1="0%" y1="0%" x2="100%" y2="100%">
      <stop offset="0%" style="stop-color:#0a192f;stop-opacity:1" />
      <stop offset="100%" style="stop-color:#112240;stop-opacity:1" />
    </linearGradient>
    <filter id="shadow" x="-20%" y="-20%" width="140%" height="140%">
      <feDropShadow dx="2" dy="2" stdDeviation="3" flood-color="#000" flood-opacity="0.3"/>
    </filter>
    <radialGradient id="eyeGlow" cx="0.5" cy="0.5" r="0.5" fx="0.5" fy="0.5">
      <stop offset="0%" style="stop-color:#64ffda;stop-opacity:0.8" />
      <stop offset="100%" style="stop-color:#64ffda;stop-opacity:0" />
    </radialGradient>
  </defs>
  
  <!-- Background -->
  <rect width="400" height="300" fill="url(#grad1)" />
  
  <!-- Car Dashboard -->
  <path d="M50,170 C70,120 330,120 350,170 L350,230 C350,240 340,250 330,250 L70,250 C60,250 50,240 50,230 Z" fill="#172a46" stroke="#64ffda" stroke-width="2" filter="url(#shadow)" />
  
  <rect x="80" y="190" width="240" height="40" rx="5" fill="#0a192f" stroke="#64ffda" stroke-width="1" />
  
  <!-- Steering Wheel -->
  <circle cx="200" cy="220" r="30" fill="none" stroke="#64ffda" stroke-width="2" />
  <circle cx="200" cy="220" r="20" fill="none" stroke="#64ffda" stroke-width="1" />
  <line x1="170" y1="220" x2="230" y2="220" stroke="#64ffda" stroke-width="1" />
  <line x1="200" y1="190" x2="200" y2="250" stroke="#64ffda" stroke-width="1" />
  
  <!-- Car Windshield View -->
  <rect x="80" y="80" width="240" height="100" rx="10" fill="#0a192f" stroke="#64ffda" stroke-width="1" />
  
  <!-- Driver Face Detection and Analysis -->
  <g transform="translate(200, 130)" filter="url(#shadow)">
    <!-- Face Outline -->
    <circle cx="0" cy="0" r="40" fill="#172a46" stroke="#64ffda" stroke-width="1" />
    
    <!-- Eyes with Monitoring Graphics -->
    <ellipse cx="-15" cy="-10" rx="10" ry="5" fill="#0a192f" stroke="#64ffda" stroke-width="1" />
    <circle cx="-15" cy="-10" r="3" fill="#64ffda" />
    <circle cx="-15" cy="-10" r="15" fill="url(#eyeGlow)" opacity="0.5" />
    
    <ellipse cx="15" cy="-10" rx="10" ry="5" fill="#0a192f" stroke="#64ffda" stroke-width="1" />
    <circle cx="15" cy="-10" r="3" fill="#64ffda" />
    <circle cx="15" cy="-10" r="15" fill="url(#eyeGlow)" opacity="0.5" />
    
    <!-- Facial Feature Detection Points -->
    <circle cx="0" cy="10" r="2" fill="#64ffda" />
    <circle cx="0" cy="20" r="2" fill="#64ffda" />
    <circle cx="-20" cy="0" r="2" fill="#64ffda" />
    <circle cx="20" cy="0" r="2" fill="#64ffda" />
    <circle cx="-25" cy="-10" r="2" fill="#64ffda" />
    <circle cx="25" cy="-10" r="2" fill="#64ffda" />
    <circle cx="-10" cy="-25" r="2" fill="#64ffda" />
    <circle cx="10" cy="-25" r="2" fill="#64ffda" />
    
    <!-- Facial Mesh/Grid for Analysis -->
    <line x1="-25" y1="-10" x2="-10" y2="-25" stroke="#64ffda" stroke-width="0.5" opacity="0.5" />
    <line x1="-10" y1="-25" x2="10" y2="-25" stroke="#64ffda" stroke-width="0.5" opacity="0.5" />
    <line x1="10" y1="-25" x2="25" y2="-10" stroke="#64ffda" stroke-width="0.5" opacity="0.5" />
    <line x1="25" y1="-10" x2="20" y2="0" stroke="#64ffda" stroke-width="0.5" opacity="0.5" />
    <line x1="20" y1="0" x2="0" y2="20" stroke="#64ffda" stroke-width="0.5" opacity="0.5" />
    <line x1="0" y1="20" x2="-20" y2="0" stroke="#64ffda" stroke-width="0.5" opacity="0.5" />
    <line x1="-20" y1="0" x2="-25" y2="-10" stroke="#64ffda" stroke-width="0.5" opacity="0.5" />
    
    <!-- Drowsiness Data Indicators -->
    <g transform="translate(-60, -40)">
      <rect x="-20" y="-15" width="40" height="30" rx="5" fill="#0a192f" stroke="#64ffda" stroke-width="1" />
      <text x="0" y="-5" fill="#64ffda" font-family="Arial" font-size="6" text-anchor="middle">BLINK RATE</text>
      <text x="0" y="8" fill="#64ffda" font-family="Arial" font-size="10" text-anchor="middle">12/min</text>
    </g>
    
    <g transform="translate(60, -40)">
      <rect x="-20" y="-15" width="40" height="30" rx="5" fill="#0a192f" stroke="#64ffda" stroke-width="1" />
      <text x="0" y="-5" fill="#64ffda" font-family="Arial" font-size="6" text-anchor="middle">ALERT LEVEL</text>
      <text x="0" y="8" fill="#64ffda" font-family="Arial" font-size="10" text-anchor="middle">85%</text>
    </g>
  </g>
  
  <!-- Alert System -->
  <g transform="translate(350, 50)">
    <path d="M0,0 L-15,25 L15,25 Z" fill="none" stroke="#ff6464" stroke-width="2" />
    <text x="0" y="20" fill="#ff6464" font-family="Arial" font-size="15" font-weight="bold" text-anchor="middle">!</text>
  </g>
  
  <!-- Connection to Car Systems -->
  <g transform="translate(50, 50)">
    <rect x="0" y="0" width="30" height="30" rx="5" fill="#0a192f" stroke="#64ffda" stroke-width="1" />
    <circle cx="15" cy="15" r="8" fill="none" stroke="#64ffda" stroke-width="1" />
    <path d="M15,7 L15,15 L20,19" fill="none" stroke="#64ffda" stroke-width="1" />
  </g>
</svg>
