<svg xmlns="http://www.w3.org/2000/svg" viewBox="0 0 24 24" width="24" height="24">
  <path fill="#61DAFB" d="M12 10.11c1.03 0 1.87.84 1.87 1.89 0 1-.84 1.85-1.87 1.85s-1.87-.85-1.87-1.85c0-1.05.84-1.89 1.87-1.89M7.37 20c.63.38 2.01-.2 3.6-1.7-.52-.59-1.03-1.23-1.51-1.9-.82-.08-1.63-.2-2.4-.36-.51 2.14-.32 3.61.31 3.96m.71-5.74l-.29-.51c-.11.29-.22.58-.29.86.27.06.57.11.88.16l-.3-.51m6.54-.76l.81-1.5-.81-1.5c-.3-.53-.62-1-.91-1.47C13.17 9 12.6 9 12 9s-1.17 0-1.71.03c-.29.47-.61.94-.91 1.47L8.57 12l.81 1.5c.3.53.62 1 .91 1.47.54.03 1.11.03 1.71.03s1.17 0 1.71-.03c.29-.47.61-.94.91-1.47M12 6.78c-.19.22-.39.45-.59.72h1.18c-.2-.27-.4-.5-.59-.72m0 10.44c.19-.22.39-.45.59-.72h-1.18c.2.27.4.5.59.72M16.63 20c.63-.35.82-1.82.31-3.96-.77.16-1.58.28-2.4.36-.48.67-.99 1.31-1.51 1.9 1.59 1.5 2.97 2.08 3.6 1.7m.69-5.23c.3-.28.58-.58.86-.88-.33-.08-.68-.15-1.02-.21l.17 1.09m.59-2.48l.17-1.09c-.34.06-.69.13-1.02.21.28.3.56.6.85.88M12 0C5.373 0 0 5.373 0 12s5.373 12 12 12 12-5.373 12-12S18.627 0 12 0m0 22.21c-1.4 0-2.79-.06-4.14-.19-1.55 1.64-3.25 2.48-4.96 1.59-.91-.47-1.55-1.49-1.79-2.91-.32-1.91.07-4.27 1.03-6.69-.98-1.56-1.74-3.23-2.2-4.93-.41-1.5-.44-2.9-.07-3.93.37-1.04 1.14-1.75 2.19-2 2.13-.51 4.99.67 7.48 3.13C11.09 5.79 12.53 6 14 6c.46 0 .93-.02 1.4-.06 2.49-2.46 5.35-3.64 7.48-3.13 1.05.25 1.82.96 2.19 2 .37 1.03.34 2.43-.07 3.93-.46 1.7-1.22 3.37-2.2 4.93.96 2.42 1.35 4.78 1.03 6.69-.24 1.42-.88 2.44-1.79 2.91-1.71.89-3.41.05-4.96-1.59-1.35.13-2.74.19-4.14.19m4.15-6.4c-.19-.34-.39-.68-.6-1.01-.22.66-.46 1.32-.73 1.96.62-.1 1.25-.24 1.85-.4l-.52-.55m-8.3 0l-.52.55c.6.16 1.23.3 1.85.4-.27-.64-.51-1.3-.73-1.96-.21.33-.41.67-.6 1.01m-.52-4.22l.52.55c.19-.34.39-.68.6-1.01.22.66.46 1.32.73 1.96-.62-.1-1.25-.24-1.85-.4l.52-.55m8.3 0l.52-.55c-.6-.16-1.23-.3-1.85-.4.27.64.51 1.3.73 1.96.21-.33.41-.67.6-1.01m1.62-3.74c-.19.22-.39.45-.59.72h1.18c-.2-.27-.4-.5-.59-.72m-7.78 14.16c.19-.22.39-.45.59-.72h-1.18c.2.27.4.5.59.72m-4.75-1.58c.46-.23.98-.42 1.53-.58-.19-.31-.36-.64-.52-.97-.79.21-1.21.49-1.01 1.55m11.36-4.73c.3-.64.57-1.3.81-1.99l-1.62-.27c.43.75.77 1.5 1.01 2.25-.07.01-.13.01-.2.01m1.8-5.45l-1.62.27c.24.69.51 1.35.81 1.99.08 0 .16 0 .24-.01-.24-.75-.02-1.5-.23-2.25M3.97 9.95c.24-.75.58-1.5 1.01-2.25l-1.62-.27c.24.69.51 1.35.81 1.99-.07.01-.13.01-.2.01m-.05 5.45l1.62-.27c-.24-.69-.51-1.35-.81-1.99-.08 0-.16 0-.24.01.24.75.02 1.5.23 2.25m11.36-6.61c.19.31.36.64.52.97.88-.23 1.62-.55 1.01-1.55-.46.23-.98.42-1.53.58"/>
</svg>
