<svg xmlns="http://www.w3.org/2000/svg" viewBox="0 0 24 24" width="24" height="24">
  <path fill="#6DB33F" d="M20.59 4.53c-.75.33-1.3.82-1.87 1.33-.31.29-.64.59-.98.85.12-1.61-.36-2.95-1.04-4.11-.08-.14-.18-.29-.28-.43C16 2.77 15.61 3.4 15.24 4c-.29.47-.57.95-.83 1.43-.34.61-.67 1.23-.95 1.86-.68-.2-1.36-.36-2.06-.47-.8-.12-1.59-.23-2.41-.15-1.43.14-2.57.71-3.57 1.34C4.02 9.05 3.01 10.34 2.2 11.7c-.95 1.6-1.68 3.34-1.94 5.2-.26 1.9.06 3.95 1.27 5.51.32.41.69.78 1.12 1.06.42.27.89.47 1.38.55.92.14 1.83-.09 2.61-.6.84-.56 1.45-1.32 1.89-2.14.44-.81.72-1.69.89-2.58.21-1.1.26-2.21.36-3.32.04-.4.08-.8.13-1.2.61-.61 1.28-1.22 1.97-1.83l.27.07c1.02.27 2.03.62 2.97 1.12 1.11.59 2.18 1.33 2.97 2.36.96 1.27 1.28 2.75.94 4.36-.34 1.55-1.19 2.74-2.3 3.76-.46.42-.98.76-1.54 1.05-.58.31-1.2.54-1.85.65-.98.17-1.97.06-2.9-.35s-1.75-1.09-2.44-1.91c-.18-.22-.35-.45-.52-.69-.05-.09-.11-.17-.16-.26-.13-.28-.06-.59.16-.77.23-.18.54-.19.81-.04.06.04.12.09.17.14.37.32.72.67 1.11.97.4.31.84.58 1.33.76.51.19 1.07.25 1.63.19.56-.06 1.12-.25 1.65-.51.69-.34 1.31-.8 1.81-1.39.54-.66.87-1.45.87-2.32-.01-.87-.36-1.62-.78-2.31-.45-.73-1.03-1.35-1.69-1.87-.84-.66-1.79-1.15-2.79-1.51-.33-.12-.67-.22-1.01-.31-.2-.06-.4-.11-.61-.16l-.25-.06c-.09-.03-.16-.05-.24-.06-.1-.01-.19-.03-.29-.03-.31-.01-.6-.17-.75-.43-.16-.28-.13-.6.04-.85.17-.27.46-.42.78-.38.17.01.31.05.48.1.26.07.52.16.77.25.53.2 1.04.43 1.53.71 1.57.89 2.89 2.15 3.7 3.85.92 1.96.91 4.06-.16 5.95-.53.94-1.26 1.74-2.13 2.36-.91.65-1.92 1.11-3.02 1.23-.91.1-1.8-.04-2.65-.4-.88-.38-1.64-.95-2.35-1.62-.17-.17-.34-.34-.5-.52-.13-.14-.25-.29-.38-.42-.52-.48-1.09-.89-1.74-1.16-.72-.31-1.52-.42-2.26-.09-.81.35-1.22 1.01-1.37 1.82-.16.88.04 1.69.45 2.45.43.79 1.01 1.46 1.65 2.09.69.67 1.45 1.28 2.25 1.82 1.66 1.13 3.53 1.84 5.51 2.02.36.03.72.05 1.08.05 3.43.02 6.69-1.32 9.32-3.4 1.92-1.51 3.46-3.42 4.43-5.68.23-.54.41-1.09.57-1.67.16-.57.29-1.15.35-1.75.12-1.1.02-2.22-.37-3.28-.53-1.48-1.5-2.72-2.58-3.85.17-.65.49-1.24.74-1.81.27-.6.54-1.19.76-1.8.35-.98.6-1.99.61-3.03 0-.63-.08-1.27-.27-1.87-.2-.62-.52-1.2-.93-1.69-.44-.52-.96-.96-1.56-1.29-.63-.35-1.32-.59-2.02-.74-.87-.18-1.74-.19-2.62-.02-.73.14-1.43.39-2.08.73-.2.11-.4.23-.58.36-.05.03-.09.07-.14.1 0 0-.23.19-.44.39-.06.06-.45.44-.7.71-.03-.02-.05-.04-.07-.06-.19-.17-.36-.35-.54-.53-.53-.53-1.06-1.05-1.57-1.58C6.24 2.35 5.76 1.87 5.27 1.4c-.08-.08-.17-.15-.25-.22-.17-.16-.22-.38-.13-.59.08-.19.26-.32.47-.33.12 0 .24.05.34.14.09.08.17.15.26.23 1.34 1.34 2.68 2.68 4.03 4.01.13.13.27.25.4.37.11.09.22.19.33.28l.08.07c.82-.86 1.68-1.72 2.63-2.48 1.13-.9 2.4-1.59 3.83-1.92.78-.18 1.58-.25 2.37-.21.16.01.32.03.49.05.03 0 .06.01.1.02.25.05.51.11.76.19.44.15.82.36 1.11.72.21.25.35.55.42.83.07.28.04.66.04.77v.08c-.02.17-.07.34-.14.5z"></path>
</svg>
