<svg xmlns="http://www.w3.org/2000/svg" viewBox="0 0 24 24" width="24" height="24">
  <path fill="#007ACC" d="M0 12v12h24V0H0v12zm19.341-6.811c.474 0 1.33.15 1.723.274.719.228.953 1.001.445 1.52-.207.215-.326.215-.995.215-.771 0-.847-.036-1.21-.307-.368-.287-.57-.319-1.315-.319-.874 0-1.491.201-1.813.597-.205.263-.248.411-.248.917 0 .419.096.675.298.857.319.33.76.42 2.868.688 1.583.193 2.264.367 2.856.722.459.278.966.821 1.119 1.196.146.367.176 1.176.053 1.569-.488 1.538-2.27 2.428-4.995 2.48-.92.015-1.201-.02-1.733-.196-1.316-.45-2.153-1.1-2.262-1.758-.072-.464.089-.87.443-1.069.285-.159.331-.159 1.055-.159h.754c.511 0 .765.035.894.128.243.16.578.26.952.26.631 0 1.31-.159 1.67-.405.264-.176.296-.219.296-.734 0-.49-.024-.571-.2-.736-.226-.215-.54-.307-1.843-.54-1.979-.338-2.815-.59-3.395-1.024-.685-.512-1.058-1.16-1.153-2.005-.064-.588.02-1.214.233-1.729.528-1.296 1.969-2.115 3.935-2.242.849-.053 1.054-.036 1.622.136zm-6.691.057c.807.054 1.021.147 1.021.445 0 .318-.215.741-.474.931-.201.147-.258.153-2.5.168L8.23 6.832v5.823c0 5.612-.004 5.823-.171 5.991-.239.239-.698.239-.937 0-.166-.168-.17-.379-.17-5.924V6.817l-1.806-.056c-1.58-.047-1.824-.07-1.976-.187-.273-.227-.29-.662-.039-.968.226-.272.267-.28 2.184-.331.955-.032 1.825-.059 1.947-.059 1.015 0 3.07.075 3.573.132z"/>
</svg>
